<svg xmlns="http://www.w3.org/2000/svg" viewBox="0 0 414 414"><title>susiアセット 3arduino</title><g id="レイヤー_2" data-name="レイヤー 2"><g id="レイヤー_2-2" data-name="レイヤー 2"><path d="M127.24,160.62c-27.47,0-49.81,21.27-49.81,47.42s22.35,47.42,49.81,47.42l.68,0c30.32,1.6,44.56-17.23,63.87-48.42C175.56,181.25,159.35,160.62,127.24,160.62Zm25.1,52.83h-46.1v-15h46.1Z"/><path d="M286.76,160.62c-32.1,0-48.31,20.63-64.55,46.44,19.31,31.19,33.59,50,63.87,48.42l.68,0c27.47,0,49.81-21.27,49.81-47.42S314.22,160.62,286.76,160.62Zm17.44,52.55h-14V227.3h-14.6V213.17h-14V198.64h14v-14h14.6v14h14Z"/><path d="M207,0C92.68,0,0,92.68,0,207S92.68,414,207,414s207-92.68,207-207S321.32,0,207,0Zm80.1,281.33q-2.3.11-4.52.11c-37.92,0-58.81-24.24-75.58-50-16.77,25.75-37.67,50-75.58,50-1.48,0-3,0-4.52-.11-41.57-.18-75.34-33-75.34-73.29s33.95-73.29,75.68-73.29c40,0,62.38,22.84,79.76,48.3,17.37-25.46,39.73-48.3,79.76-48.3,41.73,0,75.68,32.88,75.68,73.29S328.67,281.15,287.1,281.33Z"/></g></g></svg>